<svg data-v-423bf9ae="" xmlns="http://www.w3.org/2000/svg" viewBox="0 0 431 90" class="iconLeft"><!----><!----><!----><g data-v-423bf9ae="" id="2e0893f1-d6ca-4fd6-b424-d797eda15a13" fill="#09322F" transform="matrix(4.758128958864339,0,0,4.758128958864339,105.14670704627298,-4.936560133066742)"><path d="M6.93 4.31L6.93 8.51L2.55 8.51L2.55 4.31L1.02 4.31L1.02 14L2.55 14L2.55 9.87L6.93 9.87L6.93 14L8.46 14L8.46 4.31ZM15.83 7.11L15.83 8.11C15.23 7.41 14.35 6.99 13.33 6.99C11.38 6.99 9.95 8.48 9.95 10.56C9.95 12.63 11.38 14.13 13.33 14.13C14.35 14.13 15.23 13.71 15.83 13.01L15.83 14L17.26 14L17.26 7.11ZM13.62 12.88C12.35 12.88 11.42 11.91 11.42 10.56C11.42 9.21 12.35 8.23 13.62 8.23C14.91 8.23 15.83 9.21 15.83 10.56C15.83 11.91 14.91 12.88 13.62 12.88ZM22.97 6.99C21.94 6.99 21.06 7.41 20.45 8.11L20.45 7.11L19.03 7.11L19.03 16.80L20.45 16.80L20.45 13.01C21.06 13.71 21.94 14.13 22.97 14.13C24.92 14.13 26.33 12.63 26.33 10.56C26.33 8.48 24.92 6.99 22.97 6.99ZM22.67 12.88C21.38 12.88 20.45 11.91 20.45 10.56C20.45 9.21 21.38 8.23 22.67 8.23C23.94 8.23 24.86 9.21 24.86 10.56C24.86 11.91 23.94 12.88 22.67 12.88ZM32.49 7.11L30.37 11.80L28.21 7.11L26.68 7.11L29.69 13.23L27.90 16.76L29.41 16.76L33.99 7.11ZM38.39 4.19C36.30 4.19 34.86 5.28 34.86 7.03C34.86 10.64 40.57 8.88 40.57 11.28C40.57 12.25 39.69 12.88 38.42 12.88C36.96 12.88 36.12 12.07 36.11 10.96L34.58 10.96C34.64 12.85 36.06 14.13 38.35 14.13C40.57 14.13 42.13 13.02 42.13 11.23C42.13 7.52 36.41 9.35 36.41 6.94C36.41 6.01 37.21 5.43 38.35 5.43C39.56 5.43 40.35 6.10 40.39 7.22L41.87 7.22C41.83 5.36 40.40 4.19 38.39 4.19ZM47.18 7.11L45.63 7.11L45.63 5.33L44.18 5.33L44.18 7.11L42.91 7.11L42.91 8.32L44.18 8.32L44.18 14L45.63 14L45.63 8.32L47.18 8.32ZM51.42 6.99C49.29 6.99 47.74 8.48 47.74 10.56C47.74 12.63 49.29 14.13 51.42 14.13C53.55 14.13 55.09 12.63 55.09 10.56C55.09 8.48 53.55 6.99 51.42 6.99ZM51.41 8.23C52.70 8.23 53.62 9.21 53.62 10.56C53.62 11.91 52.70 12.88 51.41 12.88C50.13 12.88 49.21 11.91 49.21 10.56C49.21 9.21 50.13 8.23 51.41 8.23ZM57.88 8.72L57.88 7.11L56.45 7.11L56.45 14L57.88 14L57.88 10.60C57.88 9.18 58.87 8.34 60.47 8.34L60.47 6.93C59.25 6.93 58.34 7.59 57.88 8.72ZM68.29 10.57C68.28 8.48 66.75 6.99 64.62 6.99C62.50 6.99 60.94 8.48 60.94 10.56C60.94 12.63 62.50 14.13 64.62 14.13C66.32 14.13 67.79 13.03 68.18 11.51L66.72 11.51C66.46 12.33 65.62 12.95 64.64 12.95C63.45 12.95 62.54 12.15 62.36 11.00L68.25 11.00C68.28 10.86 68.29 10.71 68.29 10.57ZM64.64 8.16C65.77 8.16 66.68 8.88 66.92 9.90L62.40 9.90C62.65 8.86 63.52 8.16 64.64 8.16Z"></path></g><defs data-v-423bf9ae=""><linearGradient data-v-423bf9ae="" gradientTransform="rotate(25)" id="f05b611c-4583-4e98-9adf-5887c5aa8ef6" x1="0%" y1="0%" x2="100%" y2="0%"><stop data-v-423bf9ae="" offset="0%" style="stop-color: rgb(23, 119, 117); stop-opacity: 1;"></stop><stop data-v-423bf9ae="" offset="100%" style="stop-color: rgb(40, 210, 191); stop-opacity: 1;"></stop></linearGradient></defs><g data-v-423bf9ae="" id="d223ce9c-6545-4198-be60-15acb5d78944" transform="matrix(1,0,0,1,-5,-4)" stroke="none" fill="url(#f05b611c-4583-4e98-9adf-5887c5aa8ef6)"><path d="M47.8 13.1c7.6 14.8 21.8 25.2 38.1 28.1C86.6 44 87 47 87 50c0 20.4-16.6 37-37 37S13 70.4 13 50c0-19.7 15.4-35.8 34.8-36.9M50 5C25.1 5 5 25.1 5 50s20.1 45 45 45 45-20.1 45-45c0-5.7-1.1-11.2-3-16.2-17.8-1.2-32.8-12.7-39-28.7-1-.1-2-.1-3-.1z"></path><path d="M30 34c-2.5 0-4.5 2-4.5 4.5s2 4.5 4.5 4.5 4.5-2 4.5-4.5-2-4.5-4.5-4.5zM39 45c-2.5 0-4.5 2-4.5 4.5s2 4.5 4.5 4.5 4.5-2 4.5-4.5-2-4.5-4.5-4.5zM28.1 46.9c-1.4 0-2.6 1.2-2.6 2.6s1.2 2.6 2.6 2.6 2.6-1.2 2.6-2.6-1.2-2.6-2.6-2.6z"></path></g><!----></svg>