<svg data-v-fde0c5aa="" xmlns="http://www.w3.org/2000/svg" viewBox="0 0 300 300" class="icon"><!----><defs data-v-fde0c5aa=""><!----></defs><rect data-v-fde0c5aa="" fill="#E5F4F3" x="0" y="0" width="300px" height="300px" class="logo-background-square"></rect><!----><defs data-v-fde0c5aa=""><linearGradient data-v-fde0c5aa="" gradientTransform="rotate(25)" id="809cce76-be74-48b5-826e-29c7d7aaa386" x1="0%" y1="0%" x2="100%" y2="0%"><stop data-v-fde0c5aa="" offset="0%" stop-color="#177775" stop-opacity="1"></stop><stop data-v-fde0c5aa="" offset="100%" stop-color="#28D2BF" stop-opacity="1"></stop></linearGradient></defs><g data-v-fde0c5aa="" id="7a613ad5-144c-4e83-b1a5-ff95f5f7ba56" fill="url(#809cce76-be74-48b5-826e-29c7d7aaa386)" stroke="none" transform="matrix(2.4444444444444446,0,0,2.4444444444444446,27.777777777777764,27.77778127458359)"><path d="M47.8 13.1c7.6 14.8 21.8 25.2 38.1 28.1C86.6 44 87 47 87 50c0 20.4-16.6 37-37 37S13 70.4 13 50c0-19.7 15.4-35.8 34.8-36.9M50 5C25.1 5 5 25.1 5 50s20.1 45 45 45 45-20.1 45-45c0-5.7-1.1-11.2-3-16.2-17.8-1.2-32.8-12.7-39-28.7-1-.1-2-.1-3-.1z"></path><path d="M30 34c-2.5 0-4.5 2-4.5 4.5s2 4.5 4.5 4.5 4.5-2 4.5-4.5-2-4.5-4.5-4.5zM39 45c-2.5 0-4.5 2-4.5 4.5s2 4.5 4.5 4.5 4.5-2 4.5-4.5-2-4.5-4.5-4.5zM28.1 46.9c-1.4 0-2.6 1.2-2.6 2.6s1.2 2.6 2.6 2.6 2.6-1.2 2.6-2.6-1.2-2.6-2.6-2.6z"></path></g><!----></svg>